<svg width="1810" height="352" viewBox="0 0 1810 352" fill="none" xmlns="http://www.w3.org/2000/svg"><path d="M176.157 351.77c97.007 0 175.646-78.575 175.646-175.5C351.803 79.3436 273.164.769531 176.157.769531c-29.599 0-57.488 7.315339-81.9549 20.235269-9.439 4.9843-10.5804 17.575-3.0312 25.1179l43.8821 43.8452c4.915 4.9109 12.281 6.196 18.993 4.3916 7.05-1.8953 14.462-2.9061 22.111-2.9061 46.882 0 84.887 37.9736 84.887 84.8166 0 46.842-38.005 84.816-84.887 84.816-7.676 0-15.114-1.018-22.186-2.927-6.717-1.812-14.092-.529-19.012 4.386l-43.8659 43.83c-7.5469 7.54-6.4091 20.127 3.0242 25.114 24.4877 12.948 52.4067 20.281 82.0397 20.281z" fill="#A8E840"/><path d="M33.25 278.33c5.7318 7.999 17.1935 8.309 24.1552 1.354l40.9464-40.913c6.0814-6.076 6.5104-15.652 2.5264-23.268-6.1368-11.733-9.6074-25.078-9.6074-39.233 0-14.181 3.4828-27.548 9.6404-39.295 3.993-7.619 3.568-17.204-2.5181-23.285L57.455 72.7861c-6.9594-6.9536-18.4165-6.6457-24.1507 1.3468C12.6626 102.904.511353 138.169.511353 176.27c0 38.067 12.129947 73.303 32.738647 102.06zM176.157 134.128c23.294 0 42.177 18.868 42.177 42.142 0 23.274-18.883 42.141-42.177 42.141-23.293 0-42.176-18.867-42.176-42.141 0-23.274 18.883-42.142 42.176-42.142z" fill="#A8E840"/><path d="M563.216 293.04c-12.612 0-23.857-2.835-33.737-8.506-9.879-5.671-17.657-13.441-23.332-23.313v28.669h-36.89V59.9111h42.25v93.8819c5.886-9.871 13.558-17.642 23.017-23.313 9.669-5.671 20.915-8.506 33.737-8.506 10.72 0 20.495 2.31 29.323 6.931 8.829 4.41 16.396 10.606 22.702 18.587 6.516 7.981 11.456 17.117 14.819 27.408 3.574 10.292 5.36 21.318 5.36 33.08 0 11.761-1.997 22.787-5.99 33.079-3.784 10.291-9.144 19.427-16.081 27.408-6.936 7.771-15.134 13.862-24.593 18.272-9.249 4.201-19.444 6.301-30.585 6.301zm-11.666-35.914c6.727 0 12.822-1.26 18.288-3.781 5.675-2.73 10.51-6.3 14.504-10.711 4.204-4.411 7.357-9.556 9.459-15.437 2.312-6.091 3.468-12.392 3.468-18.902 0-9.031-1.892-17.328-5.675-24.888-3.574-7.771-8.619-13.967-15.135-18.588-6.306-4.62-13.768-6.931-22.386-6.931-6.096 0-11.982 1.471-17.657 4.411-5.465 2.73-10.405 6.511-14.819 11.341-4.204 4.831-7.568 10.292-10.09 16.382v39.38c1.261 4.201 3.258 7.981 5.991 11.342 2.943 3.36 6.306 6.301 10.089 8.821 3.784 2.31 7.673 4.2 11.667 5.671 4.204 1.26 8.302 1.89 12.296 1.89zM654.587 241.059c0-10.712 2.943-20.058 8.829-28.039 6.096-8.191 14.504-14.492 25.224-18.902 10.72-4.411 23.017-6.616 36.89-6.616 6.937 0 13.978.525 21.125 1.575 7.147 1.05 13.348 2.731 18.603 5.041v-8.821c0-10.502-3.153-18.588-9.459-24.258-6.096-5.671-15.24-8.506-27.431-8.506-9.039 0-17.657 1.575-25.855 4.725-8.198 3.151-16.816 7.771-25.855 13.862L663.1 143.397c10.931-7.141 22.072-12.497 33.422-16.067 11.561-3.571 23.648-5.356 36.26-5.356 23.543 0 41.83 5.881 54.862 17.642 13.243 11.762 19.864 28.564 19.864 50.406v52.612c0 4.411.736 7.561 2.208 9.451 1.681 1.89 4.309 3.046 7.882 3.466v34.339c-3.784.63-7.252 1.155-10.405 1.575-2.943.42-5.465.63-7.567.63-8.408 0-14.819-1.89-19.233-5.671-4.204-3.78-6.832-8.401-7.883-13.861l-.946-8.506c-7.147 9.241-16.08 16.382-26.801 21.422-10.72 5.041-21.65 7.561-32.791 7.561-10.93 0-20.81-2.205-29.638-6.616-8.618-4.62-15.45-10.816-20.495-18.587-4.834-7.981-7.252-16.907-7.252-26.778zm102.789 8.506c2.312-2.52 4.204-5.041 5.675-7.561 1.471-2.52 2.207-4.831 2.207-6.931v-16.697c-5.045-2.1-10.51-3.676-16.396-4.726-5.885-1.26-11.456-1.89-16.711-1.89-10.93 0-19.969 2.415-27.115 7.246-6.937 4.621-10.405 10.816-10.405 18.587 0 4.201 1.156 8.191 3.468 11.972 2.312 3.78 5.675 6.826 10.09 9.136 4.414 2.31 9.669 3.465 15.765 3.465 6.306 0 12.507-1.155 18.602-3.465 6.096-2.52 11.036-5.566 14.82-9.136zM904.69 293.04c-14.083 0-27.536-2.31-40.358-6.931-12.823-4.62-23.858-11.446-33.107-20.477l15.134-27.409c9.88 7.981 19.549 13.862 29.008 17.643 9.669 3.78 18.918 5.67 27.747 5.67 8.198 0 14.714-1.47 19.548-4.41 5.045-2.941 7.568-7.351 7.568-13.232 0-3.99-1.367-7.036-4.099-9.136-2.733-2.31-6.727-4.306-11.982-5.986-5.045-1.68-11.245-3.57-18.603-5.67-12.191-3.991-22.386-7.876-30.584-11.657-8.198-3.78-14.399-8.506-18.603-14.177-3.993-5.88-5.99-13.336-5.99-22.368 0-10.921 2.732-20.267 8.198-28.038 5.675-7.981 13.452-14.177 23.332-18.587 10.09-4.411 21.861-6.616 35.314-6.616 11.771 0 22.912 1.89 33.422 5.671 10.51 3.57 20.074 9.451 28.692 17.642l-17.026 26.778c-8.408-6.511-16.396-11.236-23.963-14.177-7.567-3.15-15.24-4.725-23.017-4.725-4.414 0-8.618.525-12.612 1.575-3.784 1.05-6.937 2.835-9.459 5.356-2.312 2.31-3.469 5.67-3.469 10.081 0 3.99 1.051 7.141 3.153 9.451 2.313 2.1 5.676 3.991 10.09 5.671 4.624 1.68 10.195 3.57 16.711 5.67 13.243 3.781 24.383 7.666 33.422 11.657 9.249 3.99 16.185 8.926 20.81 14.807 4.624 5.67 6.936 13.546 6.936 23.628 0 16.382-5.99 29.193-17.972 38.435-11.981 9.241-28.061 13.861-48.241 13.861zM1073.11 293.04c-13.25 0-25.23-2.205-35.95-6.616-10.72-4.62-19.86-10.816-27.43-18.587-7.57-7.981-13.453-17.012-17.657-27.093-3.994-10.292-5.991-21.108-5.991-32.449 0-15.752 3.469-30.139 10.405-43.161 7.143-13.021 17.233-23.418 30.273-31.189 13.24-7.981 28.79-11.971 46.66-11.971 18.08 0 33.53 3.99 46.35 11.971 12.82 7.771 22.6 18.168 29.32 31.189 6.94 12.812 10.41 26.674 10.41 41.585 0 2.521-.11 5.146-.32 7.876-.21 2.521-.42 4.621-.63 6.301h-127.69c.84 8.401 3.25 15.752 7.25 22.053 4.2 6.301 9.46 11.131 15.76 14.492 6.52 3.15 13.46 4.725 20.81 4.725 8.41 0 16.29-1.995 23.65-5.985 7.57-4.201 12.72-9.662 15.45-16.382l36.26 10.081c-3.99 8.401-9.78 15.857-17.34 22.368-7.36 6.51-16.08 11.656-26.17 15.437-10.09 3.57-21.23 5.355-33.42 5.355zm-43.2-98.922h86.39c-.84-8.401-3.26-15.647-7.25-21.738-3.78-6.301-8.83-11.131-15.13-14.492-6.31-3.57-13.35-5.355-21.13-5.355-7.57 0-14.5 1.785-20.81 5.355-6.1 3.361-11.14 8.191-15.13 14.492-3.79 6.091-6.1 13.337-6.94 21.738zM1181.77 59.9111h42.25V236.963c0 7.561 1.26 12.707 3.78 15.437 2.53 2.521 5.99 3.781 10.41 3.781 3.36 0 6.83-.42 10.4-1.26 3.58-.841 6.73-1.891 9.46-3.151l5.68 32.134c-5.68 2.73-12.3 4.831-19.87 6.301-7.56 1.47-14.4 2.205-20.49 2.205-13.24 0-23.54-3.465-30.9-10.396-7.15-7.141-10.72-17.222-10.72-30.244V59.9111zM1279 289.89V124.809h42.25V289.89H1279zm0-188.079V59.9111h42.25v41.8999H1279zM1612.87 289.89h-42.25v-92.622c0-13.021-2.31-22.578-6.94-28.668-4.41-6.301-10.61-9.451-18.6-9.451-8.2 0-16.08 3.255-23.65 9.766-7.36 6.301-12.61 14.597-15.76 24.888v96.087h-42.25v-92.622c0-13.231-2.32-22.893-6.94-28.983-4.41-6.091-10.62-9.136-18.6-9.136-8.2 0-16.08 3.15-23.65 9.451-7.36 6.3-12.61 14.597-15.77 24.888v96.402h-42.25V124.809h38.16v30.559c6.3-10.711 14.71-18.902 25.22-24.573 10.51-5.881 22.6-8.821 36.26-8.821 13.66 0 24.28 3.36 31.84 10.081 7.78 6.721 12.72 15.017 14.82 24.888 6.73-11.341 15.24-19.952 25.54-25.833 10.51-6.091 22.28-9.136 35.32-9.136 10.3 0 18.6 1.89 24.91 5.671 6.51 3.57 11.56 8.506 15.13 14.806 3.57 6.091 5.99 13.022 7.25 20.793 1.47 7.771 2.21 15.647 2.21 23.628V289.89zM1723.12 293.04c-13.24 0-25.23-2.205-35.95-6.616-10.72-4.62-19.86-10.816-27.43-18.587-7.56-7.981-13.45-17.012-17.65-27.093-4-10.292-5.99-21.108-5.99-32.449 0-15.752 3.46-30.139 10.4-43.161 7.15-13.021 17.24-23.418 30.27-31.189 13.24-7.981 28.8-11.971 46.66-11.971 18.08 0 33.53 3.99 46.35 11.971 12.83 7.771 22.6 18.168 29.33 31.189 6.93 12.812 10.4 26.674 10.4 41.585 0 2.521-.1 5.146-.31 7.876-.21 2.521-.42 4.621-.63 6.301h-127.7c.84 8.401 3.26 15.752 7.25 22.053 4.2 6.301 9.46 11.131 15.77 14.492 6.51 3.15 13.45 4.725 20.81 4.725 8.4 0 16.29-1.995 23.64-5.985 7.57-4.201 12.72-9.662 15.45-16.382l36.26 10.081c-3.99 8.401-9.77 15.857-17.34 22.368-7.36 6.51-16.08 11.656-26.17 15.437-10.09 3.57-21.23 5.355-33.42 5.355zm-43.2-98.922h86.4c-.85-8.401-3.26-15.647-7.26-21.738-3.78-6.301-8.83-11.131-15.13-14.492-6.31-3.57-13.35-5.355-21.13-5.355-7.56 0-14.5 1.785-20.81 5.355-6.09 3.361-11.14 8.191-15.13 14.492-3.78 6.091-6.1 13.337-6.94 21.738z" fill="#fff"/></svg>