<svg width="48" height="48" viewBox="0 0 48 48" fill="none" xmlns="http://www.w3.org/2000/svg"><path d="M23.9996 9.59985c-7.956 0-14.39999 6.61135-14.39999 14.76545 0 6.5249 4.12559 12.0582 9.84599 14.0091.72.139.984-.3181.984-.71 0-.3506-.012-1.2797-.018-2.5106-4.0056.8903-4.8504-1.9809-4.8504-1.9809-.6552-1.7042-1.602-2.1599-1.602-2.1599-1.3044-.9154.1008-.8966.1008-.8966 1.446.1027 2.2056 1.5214 2.2056 1.5214 1.284 2.2576 3.3708 1.6052 4.194 1.2284.1296-.9554.5004-1.6053.912-1.9747-3.198-.3694-6.5592-1.6391-6.5592-7.2963 0-1.6115.558-2.9288 1.482-3.9618-.162-.3732-.648-1.8745.126-3.908 0 0 1.206-.3957 3.96 1.5139 1.152-.3281 2.376-.4909 3.6-.4984 1.224.0075 2.448.1703 3.6.4984 2.736-1.9096 3.942-1.5139 3.942-1.5139.774 2.0335.288 3.5348.144 3.908.918 1.033 1.476 2.3503 1.476 3.9618 0 5.6723-3.366 6.9207-6.57 7.2838.504.4432.972 1.3486.972 2.7322 0 1.9759-.018 3.5636-.018 4.0432 0 .3869.252.849.99.7012 5.7612-1.9383 9.8832-7.4754 9.8832-13.9903 0-8.1541-6.4476-14.76545-14.4-14.76545z" fill="#fff"/></svg>